<?xml version="1.0"?>
<svg xmlns="http://www.w3.org/2000/svg" id="Layer_1" data-name="Layer 1" viewBox="0 0 512 512" width="512" height="512"><title>Date &amp;amp; Time</title><path d="M387.514,246.473V97.909A40.654,40.654,0,0,0,346.906,57.3h-16V45.5a31.8,31.8,0,0,0-31.762-31.762h-1.032A31.8,31.8,0,0,0,266.354,45.5V57.3H126.16V45.5A31.8,31.8,0,0,0,94.4,13.741H93.366A31.8,31.8,0,0,0,61.605,45.5V57.3h-16A40.654,40.654,0,0,0,5,97.909V372.745a40.654,40.654,0,0,0,40.608,40.608h216.3a127.15,127.15,0,0,0,43.479,59.681,125.979,125.979,0,1,0,82.126-226.561ZM278.354,45.5a19.784,19.784,0,0,1,19.761-19.762h1.032A19.784,19.784,0,0,1,318.909,45.5V68.018a19.783,19.783,0,0,1-19.762,19.761h-1.032a19.783,19.783,0,0,1-19.761-19.761Zm-204.749,0A19.784,19.784,0,0,1,93.366,25.741H94.4A19.784,19.784,0,0,1,114.16,45.5V68.018A19.783,19.783,0,0,1,94.4,87.779H93.366A19.783,19.783,0,0,1,73.605,68.018Zm-28,23.8h16.03A31.794,31.794,0,0,0,93.366,99.779H94.4A31.8,31.8,0,0,0,126.128,69.3H266.386a31.8,31.8,0,0,0,31.729,30.478h1.032A31.8,31.8,0,0,0,330.876,69.3h16.03a28.641,28.641,0,0,1,28.608,28.608v28.517H17V97.909A28.64,28.64,0,0,1,45.608,69.3ZM17,372.745V138.426H375.514v108.01A126.007,126.007,0,0,0,258.44,401.353H45.608A28.64,28.64,0,0,1,17,372.745ZM381.025,486.259A112.987,112.987,0,0,1,312.6,463.442a113.983,113.983,0,1,1,68.425,22.817Z"/><path d="M444.353,407.292l-57.328-38.219V292.284a6,6,0,0,0-12,0v80a6,6,0,0,0,2.672,4.992l60,40a6,6,0,1,0,6.656-9.984Z"/></svg>
